# xmcd CD database file
#
# Track frame offsets:
#	150
#	43870
#	94725
#	124615
#	161882
#	200207
#	260722
#
# Disc length: 4107 seconds
#
# Revision: 0
# Processed by: cddbd v1.5.1PL0 Copyright (c) Steve Scherf et al.
# Submitted via: CDex 1.51
#
DISCID=68100907
DTITLE=Keith Jarrett - The Cure
DYEAR=1992
DGENRE=Jazz
TTITLE0=Bemsha Swing
TTITLE1=Old Folks
TTITLE2=Woody'n You
TTITLE3=Blame It On My Youth
TTITLE4=Golden Earrings
TTITLE5=Body and Soul
TTITLE6=The Cure (Keith Jarrett)
EXTD=YEAR: 1992
EXTT0=
EXTT1=
EXTT2=
EXTT3=
EXTT4=
EXTT5=
EXTT6=
PLAYORDER=
